<?xml version='1.0' encoding='utf-8'?>
<svg xmlns:xlink="http://www.w3.org/1999/xlink" class="pygal-chart" id="chart-787e6e71-ba74-4a5a-a6d0-cfaab8b97208" viewBox="0 0 800 600" xmlns="http://www.w3.org/2000/svg"><!--Generated with pygal 2.4.0 (etree) ©Kozea 2012-2016 on 2019-09-02--><!--http://pygal.org--><!--http://github.com/Kozea/pygal--><defs><style type="text/css">#chart-787e6e71-ba74-4a5a-a6d0-cfaab8b97208{-webkit-user-select:none;-webkit-font-smoothing:antialiased;font-family:Consolas,"Liberation Mono",Menlo,Courier,monospace}#chart-787e6e71-ba74-4a5a-a6d0-cfaab8b97208 .title{font-family:Consolas,"Liberation Mono",Menlo,Courier,monospace;font-size:16px}#chart-787e6e71-ba74-4a5a-a6d0-cfaab8b97208 .legends .legend text{font-family:Consolas,"Liberation Mono",Menlo,Courier,monospace;font-size:14px}#chart-787e6e71-ba74-4a5a-a6d0-cfaab8b97208 .axis text{font-family:Consolas,"Liberation Mono",Menlo,Courier,monospace;font-size:10px}#chart-787e6e71-ba74-4a5a-a6d0-cfaab8b97208 .axis text.major{font-family:Consolas,"Liberation Mono",Menlo,Courier,monospace;font-size:10px}#chart-787e6e71-ba74-4a5a-a6d0-cfaab8b97208 .text-overlay text.value{font-family:Consolas,"Liberation Mono",Menlo,Courier,monospace;font-size:16px}#chart-787e6e71-ba74-4a5a-a6d0-cfaab8b97208 .text-overlay text.label{font-family:Consolas,"Liberation Mono",Menlo,Courier,monospace;font-size:10px}#chart-787e6e71-ba74-4a5a-a6d0-cfaab8b97208 .tooltip{font-family:Consolas,"Liberation Mono",Menlo,Courier,monospace;font-size:14px}#chart-787e6e71-ba74-4a5a-a6d0-cfaab8b97208 text.no_data{font-family:Consolas,"Liberation Mono",Menlo,Courier,monospace;font-size:64px}
#chart-787e6e71-ba74-4a5a-a6d0-cfaab8b97208{background-color:rgba(249,249,249,1)}#chart-787e6e71-ba74-4a5a-a6d0-cfaab8b97208 path,#chart-787e6e71-ba74-4a5a-a6d0-cfaab8b97208 line,#chart-787e6e71-ba74-4a5a-a6d0-cfaab8b97208 rect,#chart-787e6e71-ba74-4a5a-a6d0-cfaab8b97208 circle{-webkit-transition:150ms;-moz-transition:150ms;transition:150ms}#chart-787e6e71-ba74-4a5a-a6d0-cfaab8b97208 .graph &gt; .background{fill:rgba(249,249,249,1)}#chart-787e6e71-ba74-4a5a-a6d0-cfaab8b97208 .plot &gt; .background{fill:rgba(255,255,255,1)}#chart-787e6e71-ba74-4a5a-a6d0-cfaab8b97208 .graph{fill:rgba(0,0,0,.87)}#chart-787e6e71-ba74-4a5a-a6d0-cfaab8b97208 text.no_data{fill:rgba(0,0,0,1)}#chart-787e6e71-ba74-4a5a-a6d0-cfaab8b97208 .title{fill:rgba(0,0,0,1)}#chart-787e6e71-ba74-4a5a-a6d0-cfaab8b97208 .legends .legend text{fill:rgba(0,0,0,.87)}#chart-787e6e71-ba74-4a5a-a6d0-cfaab8b97208 .legends .legend:hover text{fill:rgba(0,0,0,1)}#chart-787e6e71-ba74-4a5a-a6d0-cfaab8b97208 .axis .line{stroke:rgba(0,0,0,1)}#chart-787e6e71-ba74-4a5a-a6d0-cfaab8b97208 .axis .guide.line{stroke:rgba(0,0,0,.54)}#chart-787e6e71-ba74-4a5a-a6d0-cfaab8b97208 .axis .major.line{stroke:rgba(0,0,0,.87)}#chart-787e6e71-ba74-4a5a-a6d0-cfaab8b97208 .axis text.major{fill:rgba(0,0,0,1)}#chart-787e6e71-ba74-4a5a-a6d0-cfaab8b97208 .axis.y .guides:hover .guide.line,#chart-787e6e71-ba74-4a5a-a6d0-cfaab8b97208 .line-graph .axis.x .guides:hover .guide.line,#chart-787e6e71-ba74-4a5a-a6d0-cfaab8b97208 .stackedline-graph .axis.x .guides:hover .guide.line,#chart-787e6e71-ba74-4a5a-a6d0-cfaab8b97208 .xy-graph .axis.x .guides:hover .guide.line{stroke:rgba(0,0,0,1)}#chart-787e6e71-ba74-4a5a-a6d0-cfaab8b97208 .axis .guides:hover text{fill:rgba(0,0,0,1)}#chart-787e6e71-ba74-4a5a-a6d0-cfaab8b97208 .reactive{fill-opacity:.7;stroke-opacity:.8}#chart-787e6e71-ba74-4a5a-a6d0-cfaab8b97208 .ci{stroke:rgba(0,0,0,.87)}#chart-787e6e71-ba74-4a5a-a6d0-cfaab8b97208 .reactive.active,#chart-787e6e71-ba74-4a5a-a6d0-cfaab8b97208 .active .reactive{fill-opacity:.8;stroke-opacity:.9;stroke-width:4}#chart-787e6e71-ba74-4a5a-a6d0-cfaab8b97208 .ci .reactive.active{stroke-width:1.5}#chart-787e6e71-ba74-4a5a-a6d0-cfaab8b97208 .series text{fill:rgba(0,0,0,1)}#chart-787e6e71-ba74-4a5a-a6d0-cfaab8b97208 .tooltip rect{fill:rgba(255,255,255,1);stroke:rgba(0,0,0,1);-webkit-transition:opacity 150ms;-moz-transition:opacity 150ms;transition:opacity 150ms}#chart-787e6e71-ba74-4a5a-a6d0-cfaab8b97208 .tooltip .label{fill:rgba(0,0,0,.87)}#chart-787e6e71-ba74-4a5a-a6d0-cfaab8b97208 .tooltip .label{fill:rgba(0,0,0,.87)}#chart-787e6e71-ba74-4a5a-a6d0-cfaab8b97208 .tooltip .legend{font-size:.8em;fill:rgba(0,0,0,.54)}#chart-787e6e71-ba74-4a5a-a6d0-cfaab8b97208 .tooltip .x_label{font-size:.6em;fill:rgba(0,0,0,1)}#chart-787e6e71-ba74-4a5a-a6d0-cfaab8b97208 .tooltip .xlink{font-size:.5em;text-decoration:underline}#chart-787e6e71-ba74-4a5a-a6d0-cfaab8b97208 .tooltip .value{font-size:1.5em}#chart-787e6e71-ba74-4a5a-a6d0-cfaab8b97208 .bound{font-size:.5em}#chart-787e6e71-ba74-4a5a-a6d0-cfaab8b97208 .max-value{font-size:.75em;fill:rgba(0,0,0,.54)}#chart-787e6e71-ba74-4a5a-a6d0-cfaab8b97208 .map-element{fill:rgba(255,255,255,1);stroke:rgba(0,0,0,.54) !important}#chart-787e6e71-ba74-4a5a-a6d0-cfaab8b97208 .map-element .reactive{fill-opacity:inherit;stroke-opacity:inherit}#chart-787e6e71-ba74-4a5a-a6d0-cfaab8b97208 .color-0,#chart-787e6e71-ba74-4a5a-a6d0-cfaab8b97208 .color-0 a:visited{stroke:#F44336;fill:#F44336}#chart-787e6e71-ba74-4a5a-a6d0-cfaab8b97208 .color-1,#chart-787e6e71-ba74-4a5a-a6d0-cfaab8b97208 .color-1 a:visited{stroke:#3F51B5;fill:#3F51B5}#chart-787e6e71-ba74-4a5a-a6d0-cfaab8b97208 .color-2,#chart-787e6e71-ba74-4a5a-a6d0-cfaab8b97208 .color-2 a:visited{stroke:#009688;fill:#009688}#chart-787e6e71-ba74-4a5a-a6d0-cfaab8b97208 .color-3,#chart-787e6e71-ba74-4a5a-a6d0-cfaab8b97208 .color-3 a:visited{stroke:#FFC107;fill:#FFC107}#chart-787e6e71-ba74-4a5a-a6d0-cfaab8b97208 .text-overlay .color-0 text{fill:black}#chart-787e6e71-ba74-4a5a-a6d0-cfaab8b97208 .text-overlay .color-1 text{fill:black}#chart-787e6e71-ba74-4a5a-a6d0-cfaab8b97208 .text-overlay .color-2 text{fill:black}#chart-787e6e71-ba74-4a5a-a6d0-cfaab8b97208 .text-overlay .color-3 text{fill:black}
#chart-787e6e71-ba74-4a5a-a6d0-cfaab8b97208 text.no_data{text-anchor:middle}#chart-787e6e71-ba74-4a5a-a6d0-cfaab8b97208 .guide.line{fill:none}#chart-787e6e71-ba74-4a5a-a6d0-cfaab8b97208 .centered{text-anchor:middle}#chart-787e6e71-ba74-4a5a-a6d0-cfaab8b97208 .title{text-anchor:middle}#chart-787e6e71-ba74-4a5a-a6d0-cfaab8b97208 .legends .legend text{fill-opacity:1}#chart-787e6e71-ba74-4a5a-a6d0-cfaab8b97208 .axis.x text{text-anchor:middle}#chart-787e6e71-ba74-4a5a-a6d0-cfaab8b97208 .axis.x:not(.web) text[transform]{text-anchor:start}#chart-787e6e71-ba74-4a5a-a6d0-cfaab8b97208 .axis.x:not(.web) text[transform].backwards{text-anchor:end}#chart-787e6e71-ba74-4a5a-a6d0-cfaab8b97208 .axis.y text{text-anchor:end}#chart-787e6e71-ba74-4a5a-a6d0-cfaab8b97208 .axis.y text[transform].backwards{text-anchor:start}#chart-787e6e71-ba74-4a5a-a6d0-cfaab8b97208 .axis.y2 text{text-anchor:start}#chart-787e6e71-ba74-4a5a-a6d0-cfaab8b97208 .axis.y2 text[transform].backwards{text-anchor:end}#chart-787e6e71-ba74-4a5a-a6d0-cfaab8b97208 .axis .guide.line{stroke-dasharray:4,4}#chart-787e6e71-ba74-4a5a-a6d0-cfaab8b97208 .axis .major.guide.line{stroke-dasharray:6,6}#chart-787e6e71-ba74-4a5a-a6d0-cfaab8b97208 .horizontal .axis.y .guide.line,#chart-787e6e71-ba74-4a5a-a6d0-cfaab8b97208 .horizontal .axis.y2 .guide.line,#chart-787e6e71-ba74-4a5a-a6d0-cfaab8b97208 .vertical .axis.x .guide.line{opacity:0}#chart-787e6e71-ba74-4a5a-a6d0-cfaab8b97208 .horizontal .axis.always_show .guide.line,#chart-787e6e71-ba74-4a5a-a6d0-cfaab8b97208 .vertical .axis.always_show .guide.line{opacity:1 !important}#chart-787e6e71-ba74-4a5a-a6d0-cfaab8b97208 .axis.y .guides:hover .guide.line,#chart-787e6e71-ba74-4a5a-a6d0-cfaab8b97208 .axis.y2 .guides:hover .guide.line,#chart-787e6e71-ba74-4a5a-a6d0-cfaab8b97208 .axis.x .guides:hover .guide.line{opacity:1}#chart-787e6e71-ba74-4a5a-a6d0-cfaab8b97208 .axis .guides:hover text{opacity:1}#chart-787e6e71-ba74-4a5a-a6d0-cfaab8b97208 .nofill{fill:none}#chart-787e6e71-ba74-4a5a-a6d0-cfaab8b97208 .subtle-fill{fill-opacity:.2}#chart-787e6e71-ba74-4a5a-a6d0-cfaab8b97208 .dot{stroke-width:1px;fill-opacity:1}#chart-787e6e71-ba74-4a5a-a6d0-cfaab8b97208 .dot.active{stroke-width:5px}#chart-787e6e71-ba74-4a5a-a6d0-cfaab8b97208 .dot.negative{fill:transparent}#chart-787e6e71-ba74-4a5a-a6d0-cfaab8b97208 text,#chart-787e6e71-ba74-4a5a-a6d0-cfaab8b97208 tspan{stroke:none !important}#chart-787e6e71-ba74-4a5a-a6d0-cfaab8b97208 .series text.active{opacity:1}#chart-787e6e71-ba74-4a5a-a6d0-cfaab8b97208 .tooltip rect{fill-opacity:.95;stroke-width:.5}#chart-787e6e71-ba74-4a5a-a6d0-cfaab8b97208 .tooltip text{fill-opacity:1}#chart-787e6e71-ba74-4a5a-a6d0-cfaab8b97208 .showable{visibility:hidden}#chart-787e6e71-ba74-4a5a-a6d0-cfaab8b97208 .showable.shown{visibility:visible}#chart-787e6e71-ba74-4a5a-a6d0-cfaab8b97208 .gauge-background{fill:rgba(229,229,229,1);stroke:none}#chart-787e6e71-ba74-4a5a-a6d0-cfaab8b97208 .bg-lines{stroke:rgba(249,249,249,1);stroke-width:2px}</style><script type="text/javascript">window.pygal = window.pygal || {};window.pygal.config = window.pygal.config || {};window.pygal.config['787e6e71-ba74-4a5a-a6d0-cfaab8b97208'] = {"allow_interruptions": false, "box_mode": "extremes", "classes": ["pygal-chart"], "css": ["file://style.css", "file://graph.css"], "defs": [], "disable_xml_declaration": false, "dots_size": 2.5, "dynamic_print_values": false, "explicit_size": false, "fill": false, "force_uri_protocol": "https", "formatter": null, "half_pie": false, "height": 600, "include_x_axis": false, "inner_radius": 0, "interpolate": null, "interpolation_parameters": {}, "interpolation_precision": 250, "inverse_y_axis": false, "js": ["//kozea.github.io/pygal.js/2.0.x/pygal-tooltips.min.js"], "legend_at_bottom": false, "legend_at_bottom_columns": null, "legend_box_size": 12, "logarithmic": false, "margin": 20, "margin_bottom": null, "margin_left": null, "margin_right": null, "margin_top": null, "max_scale": 16, "min_scale": 4, "missing_value_fill_truncation": "x", "no_data_text": "No data", "no_prefix": false, "order_min": null, "pretty_print": false, "print_labels": false, "print_values": false, "print_values_position": "center", "print_zeroes": true, "range": null, "rounded_bars": null, "secondary_range": null, "show_dots": true, "show_legend": true, "show_minor_x_labels": true, "show_minor_y_labels": true, "show_only_major_dots": false, "show_x_guides": false, "show_x_labels": true, "show_y_guides": true, "show_y_labels": true, "spacing": 10, "stack_from_top": false, "strict": false, "stroke": true, "stroke_style": null, "style": {"background": "rgba(249, 249, 249, 1)", "ci_colors": [], "colors": ["#F44336", "#3F51B5", "#009688", "#FFC107", "#FF5722", "#9C27B0", "#03A9F4", "#8BC34A", "#FF9800", "#E91E63", "#2196F3", "#4CAF50", "#FFEB3B", "#673AB7", "#00BCD4", "#CDDC39", "#9E9E9E", "#607D8B"], "font_family": "Consolas, \"Liberation Mono\", Menlo, Courier, monospace", "foreground": "rgba(0, 0, 0, .87)", "foreground_strong": "rgba(0, 0, 0, 1)", "foreground_subtle": "rgba(0, 0, 0, .54)", "guide_stroke_dasharray": "4,4", "label_font_family": "Consolas, \"Liberation Mono\", Menlo, Courier, monospace", "label_font_size": 10, "legend_font_family": "Consolas, \"Liberation Mono\", Menlo, Courier, monospace", "legend_font_size": 14, "major_guide_stroke_dasharray": "6,6", "major_label_font_family": "Consolas, \"Liberation Mono\", Menlo, Courier, monospace", "major_label_font_size": 10, "no_data_font_family": "Consolas, \"Liberation Mono\", Menlo, Courier, monospace", "no_data_font_size": 64, "opacity": ".7", "opacity_hover": ".8", "plot_background": "rgba(255, 255, 255, 1)", "stroke_opacity": ".8", "stroke_opacity_hover": ".9", "title_font_family": "Consolas, \"Liberation Mono\", Menlo, Courier, monospace", "title_font_size": 16, "tooltip_font_family": "Consolas, \"Liberation Mono\", Menlo, Courier, monospace", "tooltip_font_size": 14, "transition": "150ms", "value_background": "rgba(229, 229, 229, 1)", "value_colors": [], "value_font_family": "Consolas, \"Liberation Mono\", Menlo, Courier, monospace", "value_font_size": 16, "value_label_font_family": "Consolas, \"Liberation Mono\", Menlo, Courier, monospace", "value_label_font_size": 10}, "title": "Facturas 2018", "tooltip_border_radius": 0, "tooltip_fancy_mode": true, "truncate_label": null, "truncate_legend": null, "width": 800, "x_label_rotation": 0, "x_labels": [201801, 201802, 201803, 201804, 201805, 201806, 201807, 201808, 201809, 201810, 201811, 201812], "x_labels_major": null, "x_labels_major_count": null, "x_labels_major_every": null, "x_title": null, "xrange": null, "y_label_rotation": 0, "y_labels": null, "y_labels_major": null, "y_labels_major_count": null, "y_labels_major_every": null, "y_title": null, "zero": 0, "legends": ["Bimbo", "Barcel", "Alpura", "Facturas sin mano obra"]}</script><script type="text/javascript" xlink:href="https://kozea.github.io/pygal.js/2.0.x/pygal-tooltips.min.js" /></defs><title>Facturas 2018</title><g class="graph pie-graph vertical"><rect class="background" height="600" width="800" x="0" y="0" /><g class="plot" transform="translate(168, 46)"><rect class="background" height="534" width="612.0" x="0" y="0" /><g class="series serie-0 color-0"><g class="slices"><g class="slice"><path class="slice reactive tooltip-trigger" d="M306.000000 0.000000 A267.000000 267.000000 0 0 1 309.784129 0.026817 L309.405716 26.724135 A240.300000 240.300000 0 0 0 306.000000 26.700000 z" /><desc class="value">23718.52</desc><desc class="x centered">307.7975062603247</desc><desc class="y centered">13.356369149067547</desc></g><g class="slice"><path class="slice reactive tooltip-trigger" d="M309.784129 0.026817 A267.000000 267.000000 0 0 1 334.633325 1.539772 L331.769992 28.085795 A240.300000 240.300000 0 0 0 309.405716 26.724135 z" /><desc class="value">156091.92</desc><desc class="x centered">321.41505141798547</desc><desc class="y centered">13.818842150959284</desc></g><g class="slice"><path class="slice reactive tooltip-trigger" d="M334.633325 1.539772 A267.000000 267.000000 0 0 1 339.092022 2.058652 L335.782820 28.552786 A240.300000 240.300000 0 0 0 331.769992 28.085795 z" /><desc class="value">28134.64</desc><desc class="x centered">335.3205757079181</desc><desc class="y centered">15.050349593105722</desc></g><g class="slice"><path class="slice reactive tooltip-trigger" d="M339.092022 2.058652 A267.000000 267.000000 0 0 1 354.330730 4.410700 L349.497657 30.669630 A240.300000 240.300000 0 0 0 335.782820 28.552786 z" /><desc class="value">96655.84</desc><desc class="x centered">344.6919404543331</desc><desc class="y centered">16.318416624040083</desc></g><g class="slice"><path class="slice reactive tooltip-trigger" d="M354.330730 4.410700 A267.000000 267.000000 0 0 1 379.911016 10.433904 L372.519915 36.090514 A240.300000 240.300000 0 0 0 349.497657 30.669630 z" /><desc class="value">164780.32</desc><desc class="x centered">364.13527223918913</desc><desc class="y centered">20.102019810458216</desc></g><g class="slice"><path class="slice reactive tooltip-trigger" d="M379.911016 10.433904 A267.000000 267.000000 0 0 1 406.445359 19.614208 L396.400823 44.352788 A240.300000 240.300000 0 0 0 372.519915 36.090514 z" /><desc class="value">176062.48</desc><desc class="x centered">388.93399838559264</desc><desc class="y centered">27.29127172383039</desc></g><g class="slice"><path class="slice reactive tooltip-trigger" d="M406.445359 19.614208 A267.000000 267.000000 0 0 1 424.259580 27.618147 L412.433622 51.556332 A240.300000 240.300000 0 0 0 396.400823 44.352788 z" /><desc class="value">122433.36</desc><desc class="x centered">409.9543914134006</desc><desc class="y centered">35.63058325295128</desc></g><g class="slice"><path class="slice reactive tooltip-trigger" d="M424.259580 27.618147 A267.000000 267.000000 0 0 1 429.904146 30.490460 L417.513731 54.141414 A240.300000 240.300000 0 0 0 412.433622 51.556332 z" /><desc class="value">39696.36</desc><desc class="x centered">421.03586079516197</desc><desc class="y centered">40.93568784278193</desc></g><g class="slice"><path class="slice reactive tooltip-trigger" d="M429.904146 30.490460 A267.000000 267.000000 0 0 1 449.576638 41.889473 L435.218974 64.400526 A240.300000 240.300000 0 0 0 417.513731 54.141414 z" /><desc class="value">142547.76</desc><desc class="x centered">433.168692997084</desc><desc class="y centered">47.5314463951307</desc></g><g class="slice"><path class="slice reactive tooltip-trigger" d="M449.576638 41.889473 A267.000000 267.000000 0 0 1 459.493770 48.531095 L444.144393 70.377985 A240.300000 240.300000 0 0 0 435.218974 64.400526 z" /><desc class="value">74815.36</desc><desc class="x centered">447.14370479074324</desc><desc class="y centered">56.24711841129309</desc></g><g class="slice"><path class="slice reactive tooltip-trigger" d="M459.493770 48.531095 A267.000000 267.000000 0 0 1 473.569392 59.131054 L456.812453 79.917949 A240.300000 240.300000 0 0 0 444.144393 70.377985 z" /><desc class="value">110459.84</desc><desc class="x centered">458.5880948795368</desc><desc class="y centered">64.37918221210958</desc></g><g class="slice"><path class="slice reactive tooltip-trigger" d="M473.569392 59.131054 A267.000000 267.000000 0 0 1 479.926157 64.419913 L462.533542 84.677921 A240.300000 240.300000 0 0 0 456.812453 79.917949 z" /><desc class="value">51831.12</desc><desc class="x centered">468.2298386971576</desc><desc class="y centered">72.01332882400854</desc></g><g class="big_slice"><path class="slice reactive tooltip-trigger" d="M306.000000 26.700000 A240.300000 240.300000 0 0 1 462.533542 84.677921 L306.000000 267.000000 A0.000000 0.000000 0 0 0 306.000000 267.000000 z" /><desc class="value">1187227.52</desc><desc class="x centered">347.7314247613834</desc><desc class="y centered">154.33008082285227</desc></g></g></g><g class="series serie-1 color-1"><g class="slices"><g class="slice"><path class="slice reactive tooltip-trigger" d="M479.926157 64.419913 A267.000000 267.000000 0 0 1 492.058541 75.502691 L473.452686 94.652422 A240.300000 240.300000 0 0 0 462.533542 84.677921 z" /><desc class="value">103009.16</desc><desc class="x centered">477.07374807457103</desc><desc class="y centered">79.72454720461036</desc></g><g class="slice"><path class="slice reactive tooltip-trigger" d="M492.058541 75.502691 A267.000000 267.000000 0 0 1 495.778006 79.188104 L476.800205 97.969293 A240.300000 240.300000 0 0 0 473.452686 94.652422 z" /><desc class="value">32818.72</desc><desc class="x centered">484.53094238914264</desc><desc class="y centered">86.81946523099501</desc></g><g class="slice"><path class="slice reactive tooltip-trigger" d="M495.778006 79.188104 A267.000000 267.000000 0 0 1 496.127875 79.542295 L477.115087 98.288066 A240.300000 240.300000 0 0 0 476.800205 97.969293 z" /><desc class="value">3120.4</desc><desc class="x centered">486.45537191904924</desc><desc class="y centered">88.74686189141687</desc></g><g class="slice"><path class="slice reactive tooltip-trigger" d="M496.127875 79.542295 A267.000000 267.000000 0 0 1 510.088609 94.846465 L489.679748 112.061818 A240.300000 240.300000 0 0 0 477.115087 98.288066 z" /><desc class="value">129868.96</desc><desc class="x centered">493.3938836785702</desc><desc class="y centered">96.05598910794654</desc></g><g class="slice"><path class="slice reactive tooltip-trigger" d="M510.088609 94.846465 A267.000000 267.000000 0 0 1 517.720246 104.323827 L496.548222 120.591444 A240.300000 240.300000 0 0 0 489.679748 112.061818 z" /><desc class="value">76272.32</desc><desc class="x centered">503.56050280858636</desc><desc class="y centered">107.91458196924981</desc></g><g class="slice"><path class="slice reactive tooltip-trigger" d="M517.720246 104.323827 A267.000000 267.000000 0 0 1 523.535698 112.186499 L501.782128 127.667849 A240.300000 240.300000 0 0 0 496.548222 120.591444 z" /><desc class="value">61299.04</desc><desc class="x centered">509.93077538089415</desc><desc class="y centered">116.16710785592119</desc></g><g class="slice"><path class="slice reactive tooltip-trigger" d="M523.535698 112.186499 A267.000000 267.000000 0 0 1 533.863336 127.833553 L511.077003 141.750198 A240.300000 240.300000 0 0 0 501.782128 127.667849 z" /><desc class="value">117531.2</desc><desc class="x centered">517.6950518098616</desc><desc class="y centered">127.27338285344484</desc></g><g class="slice"><desc class="value">0</desc><desc class="x centered">522.470169670363</desc><desc class="y centered">134.79187565476823</desc></g><g class="slice"><desc class="value">0</desc><desc class="x centered">522.470169670363</desc><desc class="y centered">134.79187565476823</desc></g><g class="slice"><desc class="value">0</desc><desc class="x centered">522.470169670363</desc><desc class="y centered">134.79187565476823</desc></g><g class="slice"><desc class="value">0</desc><desc class="x centered">522.470169670363</desc><desc class="y centered">134.79187565476823</desc></g><g class="slice"><desc class="value">0</desc><desc class="x centered">522.470169670363</desc><desc class="y centered">134.79187565476823</desc></g><g class="big_slice"><path class="slice reactive tooltip-trigger" d="M462.533542 84.677921 A240.300000 240.300000 0 0 1 511.077003 141.750198 L306.000000 267.000000 A0.000000 0.000000 0 0 0 306.000000 267.000000 z" /><desc class="value">523919.8</desc><desc class="x centered">397.5216608908529</desc><desc class="y centered">189.15523082583053</desc></g></g></g><g class="series serie-2 color-2"><g class="slices"><g class="slice"><path class="slice reactive tooltip-trigger" d="M533.863336 127.833553 A267.000000 267.000000 0 0 1 549.137337 156.667615 L524.823604 167.700853 A240.300000 240.300000 0 0 0 511.077003 141.750198 z" /><desc class="value">204640.24</desc><desc class="x centered">530.1441592961686</desc><desc class="y centered">148.26618698359852</desc></g><g class="slice"><path class="slice reactive tooltip-trigger" d="M549.137337 156.667615 A267.000000 267.000000 0 0 1 557.835311 178.298388 L532.651780 187.168549 A240.300000 240.300000 0 0 0 524.823604 167.700853 z" /><desc class="value">146171.6</desc><desc class="x centered">541.3364061461108</desc><desc class="y centered">172.36861808980703</desc></g><g class="slice"><path class="slice reactive tooltip-trigger" d="M557.835311 178.298388 A267.000000 267.000000 0 0 1 559.346358 182.711075 L534.011722 191.139968 A240.300000 240.300000 0 0 0 532.651780 187.168549 z" /><desc class="value">29234.32</desc><desc class="x centered">545.9704470034078</desc><desc class="y centered">184.82636027907319</desc></g><g class="slice"><path class="slice reactive tooltip-trigger" d="M559.346358 182.711075 A267.000000 267.000000 0 0 1 560.780092 187.149486 L535.302083 195.134537 A240.300000 240.300000 0 0 0 534.011722 191.139968 z" /><desc class="value">29234.32</desc><desc class="x centered">547.3692713459047</desc><desc class="y centered">189.03079229627264</desc></g><g class="slice"><path class="slice reactive tooltip-trigger" d="M560.780092 187.149486 A267.000000 267.000000 0 0 1 566.774586 209.679713 L540.697127 215.411741 A240.300000 240.300000 0 0 0 535.302083 195.134537 z" /><desc class="value">146171.6</desc><desc class="x centered">551.1222011973457</desc><desc class="y centered">201.78168217311986</desc></g><g class="slice"><desc class="value">0</desc><desc class="x centered">553.7358566097234</desc><desc class="y centered">212.5457269826641</desc></g><g class="slice"><desc class="value">0</desc><desc class="x centered">553.7358566097234</desc><desc class="y centered">212.5457269826641</desc></g><g class="slice"><desc class="value">0</desc><desc class="x centered">553.7358566097234</desc><desc class="y centered">212.5457269826641</desc></g><g class="slice"><desc class="value">0</desc><desc class="x centered">553.7358566097234</desc><desc class="y centered">212.5457269826641</desc></g><g class="slice"><desc class="value">0</desc><desc class="x centered">553.7358566097234</desc><desc class="y centered">212.5457269826641</desc></g><g class="slice"><desc class="value">0</desc><desc class="x centered">553.7358566097234</desc><desc class="y centered">212.5457269826641</desc></g><g class="slice"><desc class="value">0</desc><desc class="x centered">553.7358566097234</desc><desc class="y centered">212.5457269826641</desc></g><g class="big_slice"><path class="slice reactive tooltip-trigger" d="M511.077003 141.750198 A240.300000 240.300000 0 0 1 540.697127 215.411741 L306.000000 267.000000 A0.000000 0.000000 0 0 0 306.000000 267.000000 z" /><desc class="value">555452.08</desc><desc class="x centered">417.4751397534209</desc><desc class="y centered">222.17460856885594</desc></g></g></g><g class="series serie-3 color-3"><g class="slices"><g class="slice"><path class="slice reactive tooltip-trigger" d="M566.774586 209.679713 A267.000000 267.000000 0 0 1 572.926794 273.251925 L546.234115 272.626733 A240.300000 240.300000 0 0 0 540.697127 215.411741 z" /><desc class="value">401272.71</desc><desc class="x centered">558.4705086254446</desc><desc class="y centered">242.5671374086195</desc></g><g class="slice"><path class="slice reactive tooltip-trigger" d="M572.926794 273.251925 A267.000000 267.000000 0 0 1 565.545860 329.649396 L539.591274 323.384456 A240.300000 240.300000 0 0 0 546.234115 272.626733 z" /><desc class="value">357173.46</desc><desc class="x centered">557.5052693831508</desc><desc class="y centered">299.9153759284128</desc></g><g class="slice"><path class="slice reactive tooltip-trigger" d="M565.545860 329.649396 A267.000000 267.000000 0 0 1 532.758668 407.959237 L510.082801 393.863313 A240.300000 240.300000 0 0 0 539.591274 323.384456 z" /><desc class="value">534372.49</desc><desc class="x centered">539.9704220502947</desc><desc class="y centered">364.96001278892805</desc></g><g class="slice"><path class="slice reactive tooltip-trigger" d="M532.758668 407.959237 A267.000000 267.000000 0 0 1 468.263938 479.036351 L452.037545 457.832716 A240.300000 240.300000 0 0 0 510.082801 393.863313 z" /><desc class="value">604838.39</desc><desc class="x centered">493.8446607649414</desc><desc class="y centered">437.4485433264364</desc></g><g class="slice"><path class="slice reactive tooltip-trigger" d="M468.263938 479.036351 A267.000000 267.000000 0 0 1 397.588815 517.799699 L388.429934 492.719729 A240.300000 240.300000 0 0 0 452.037545 457.832716 z" /><desc class="value">507161.06</desc><desc class="x centered">427.9777596162235</desc><desc class="y centered">489.39547805431386</desc></g><g class="slice"><path class="slice reactive tooltip-trigger" d="M397.588815 517.799699 A267.000000 267.000000 0 0 1 323.233755 533.443235 L321.510380 506.798912 A240.300000 240.300000 0 0 0 388.429934 492.719729 z" /><desc class="value">477858.46</desc><desc class="x centered">358.2220799816548</desc><desc class="y centered">515.2159883294983</desc></g><g class="slice"><path class="slice reactive tooltip-trigger" d="M323.233755 533.443235 A267.000000 267.000000 0 0 1 262.037224 530.355794 L266.433501 504.020215 A240.300000 240.300000 0 0 0 321.510380 506.798912 z" /><desc class="value">384896.21</desc><desc class="x centered">293.2192968188503</desc><desc class="y centered">520.3278036974926</desc></g><g class="slice"><path class="slice reactive tooltip-trigger" d="M262.037224 530.355794 A267.000000 267.000000 0 0 1 153.334680 486.048625 L168.601212 464.143762 A240.300000 240.300000 0 0 0 266.433501 504.020215 z" /><desc class="value">741793.73</desc><desc class="x centered">210.25982498675438</desc><desc class="y centered">501.8875079446183</desc></g><g class="slice"><path class="slice reactive tooltip-trigger" d="M153.334680 486.048625 A267.000000 267.000000 0 0 1 104.599012 91.709835 L124.739111 109.238851 A240.300000 240.300000 0 0 0 168.601212 464.143762 z" /><desc class="value">2808612.53</desc><desc class="x centered">54.265222022294296</desc><desc class="y centered">298.11147789024545</desc></g><g class="slice"><path class="slice reactive tooltip-trigger" d="M104.599012 91.709835 A267.000000 267.000000 0 0 1 155.261973 46.620674 L170.335776 68.658607 A240.300000 240.300000 0 0 0 124.739111 109.238851 z" /><desc class="value">426235.54</desc><desc class="x centered">137.36836461229043</desc><desc class="y centered">77.52257642012711</desc></g><g class="slice"><path class="slice reactive tooltip-trigger" d="M155.261973 46.620674 A267.000000 267.000000 0 0 1 212.684469 16.837629 L222.016022 41.853867 A240.300000 240.300000 0 0 0 170.335776 68.658607 z" /><desc class="value">406434.19</desc><desc class="x centered">189.21453951171384</desc><desc class="y centered">41.834552565143895</desc></g><g class="slice"><path class="slice reactive tooltip-trigger" d="M212.684469 16.837629 A267.000000 267.000000 0 0 1 306.000000 0.000000 L306.000000 26.700000 A240.300000 240.300000 0 0 0 222.016022 41.853867 z" /><desc class="value">597485.55</desc><desc class="x centered">260.95934351470396</desc><desc class="y centered">17.38096674457384</desc></g><g class="big_slice"><path class="slice reactive tooltip-trigger" d="M540.697127 215.411741 A240.300000 240.300000 0 1 1 306.000000 26.700000 L306.000000 267.000000 A0.000000 0.000000 0 1 0 306.000000 267.000000 z" /><desc class="value">8248134.32</desc><desc class="x centered">230.71103048347243</desc><desc class="y centered">360.6354290273686</desc></g></g></g></g><g class="titles"><text class="title plot_title" x="400.0" y="26">Facturas 2018</text></g><g class="plot overlay" transform="translate(168, 46)"><g class="series serie-0 color-0" /><g class="series serie-1 color-1" /><g class="series serie-2 color-2" /><g class="series serie-3 color-3" /></g><g class="plot text-overlay" transform="translate(168, 46)"><g class="series serie-0 color-0" /><g class="series serie-1 color-1" /><g class="series serie-2 color-2" /><g class="series serie-3 color-3" /></g><g class="plot tooltip-overlay" transform="translate(168, 46)"><g class="tooltip" style="opacity: 0" transform="translate(0 0)"><rect class="tooltip-box" height="0" rx="0" ry="0" width="0" /><g class="text" /></g></g><g class="legends" transform="translate(10, 56)"><g class="legend reactive activate-serie" id="activate-serie-0"><rect class="color-0 reactive" height="12" width="12" x="0.0" y="1.0" /><text x="17.0" y="11.2">Bimbo</text></g><g class="legend reactive activate-serie" id="activate-serie-1"><rect class="color-1 reactive" height="12" width="12" x="0.0" y="22.0" /><text x="17.0" y="32.2">Barcel</text></g><g class="legend reactive activate-serie" id="activate-serie-2"><rect class="color-2 reactive" height="12" width="12" x="0.0" y="43.0" /><text x="17.0" y="53.2">Alpura</text></g><g class="legend reactive activate-serie" id="activate-serie-3"><rect class="color-3 reactive" height="12" width="12" x="0.0" y="64.0" /><text x="17.0" y="74.2">Facturas sin m…</text><title>Facturas sin mano obra</title></g></g><g class="legends" transform="translate(790, 56)" /></g></svg>