<?xml version='1.0' encoding='utf-8'?>
<svg xmlns:xlink="http://www.w3.org/1999/xlink" class="pygal-chart" id="chart-c2e5d408-d45c-479a-ab34-f6fdb54491d6" viewBox="0 0 800 600" xmlns="http://www.w3.org/2000/svg"><!--Generated with pygal 2.4.0 (etree) ©Kozea 2012-2016 on 2019-09-19--><!--http://pygal.org--><!--http://github.com/Kozea/pygal--><defs><style type="text/css">#chart-c2e5d408-d45c-479a-ab34-f6fdb54491d6{-webkit-user-select:none;-webkit-font-smoothing:antialiased;font-family:Consolas,"Liberation Mono",Menlo,Courier,monospace}#chart-c2e5d408-d45c-479a-ab34-f6fdb54491d6 .title{font-family:Consolas,"Liberation Mono",Menlo,Courier,monospace;font-size:16px}#chart-c2e5d408-d45c-479a-ab34-f6fdb54491d6 .legends .legend text{font-family:Consolas,"Liberation Mono",Menlo,Courier,monospace;font-size:14px}#chart-c2e5d408-d45c-479a-ab34-f6fdb54491d6 .axis text{font-family:Consolas,"Liberation Mono",Menlo,Courier,monospace;font-size:10px}#chart-c2e5d408-d45c-479a-ab34-f6fdb54491d6 .axis text.major{font-family:Consolas,"Liberation Mono",Menlo,Courier,monospace;font-size:10px}#chart-c2e5d408-d45c-479a-ab34-f6fdb54491d6 .text-overlay text.value{font-family:Consolas,"Liberation Mono",Menlo,Courier,monospace;font-size:16px}#chart-c2e5d408-d45c-479a-ab34-f6fdb54491d6 .text-overlay text.label{font-family:Consolas,"Liberation Mono",Menlo,Courier,monospace;font-size:10px}#chart-c2e5d408-d45c-479a-ab34-f6fdb54491d6 .tooltip{font-family:Consolas,"Liberation Mono",Menlo,Courier,monospace;font-size:14px}#chart-c2e5d408-d45c-479a-ab34-f6fdb54491d6 text.no_data{font-family:Consolas,"Liberation Mono",Menlo,Courier,monospace;font-size:64px}
#chart-c2e5d408-d45c-479a-ab34-f6fdb54491d6{background-color:rgba(249,249,249,1)}#chart-c2e5d408-d45c-479a-ab34-f6fdb54491d6 path,#chart-c2e5d408-d45c-479a-ab34-f6fdb54491d6 line,#chart-c2e5d408-d45c-479a-ab34-f6fdb54491d6 rect,#chart-c2e5d408-d45c-479a-ab34-f6fdb54491d6 circle{-webkit-transition:150ms;-moz-transition:150ms;transition:150ms}#chart-c2e5d408-d45c-479a-ab34-f6fdb54491d6 .graph &gt; .background{fill:rgba(249,249,249,1)}#chart-c2e5d408-d45c-479a-ab34-f6fdb54491d6 .plot &gt; .background{fill:rgba(255,255,255,1)}#chart-c2e5d408-d45c-479a-ab34-f6fdb54491d6 .graph{fill:rgba(0,0,0,.87)}#chart-c2e5d408-d45c-479a-ab34-f6fdb54491d6 text.no_data{fill:rgba(0,0,0,1)}#chart-c2e5d408-d45c-479a-ab34-f6fdb54491d6 .title{fill:rgba(0,0,0,1)}#chart-c2e5d408-d45c-479a-ab34-f6fdb54491d6 .legends .legend text{fill:rgba(0,0,0,.87)}#chart-c2e5d408-d45c-479a-ab34-f6fdb54491d6 .legends .legend:hover text{fill:rgba(0,0,0,1)}#chart-c2e5d408-d45c-479a-ab34-f6fdb54491d6 .axis .line{stroke:rgba(0,0,0,1)}#chart-c2e5d408-d45c-479a-ab34-f6fdb54491d6 .axis .guide.line{stroke:rgba(0,0,0,.54)}#chart-c2e5d408-d45c-479a-ab34-f6fdb54491d6 .axis .major.line{stroke:rgba(0,0,0,.87)}#chart-c2e5d408-d45c-479a-ab34-f6fdb54491d6 .axis text.major{fill:rgba(0,0,0,1)}#chart-c2e5d408-d45c-479a-ab34-f6fdb54491d6 .axis.y .guides:hover .guide.line,#chart-c2e5d408-d45c-479a-ab34-f6fdb54491d6 .line-graph .axis.x .guides:hover .guide.line,#chart-c2e5d408-d45c-479a-ab34-f6fdb54491d6 .stackedline-graph .axis.x .guides:hover .guide.line,#chart-c2e5d408-d45c-479a-ab34-f6fdb54491d6 .xy-graph .axis.x .guides:hover .guide.line{stroke:rgba(0,0,0,1)}#chart-c2e5d408-d45c-479a-ab34-f6fdb54491d6 .axis .guides:hover text{fill:rgba(0,0,0,1)}#chart-c2e5d408-d45c-479a-ab34-f6fdb54491d6 .reactive{fill-opacity:.7;stroke-opacity:.8}#chart-c2e5d408-d45c-479a-ab34-f6fdb54491d6 .ci{stroke:rgba(0,0,0,.87)}#chart-c2e5d408-d45c-479a-ab34-f6fdb54491d6 .reactive.active,#chart-c2e5d408-d45c-479a-ab34-f6fdb54491d6 .active .reactive{fill-opacity:.8;stroke-opacity:.9;stroke-width:4}#chart-c2e5d408-d45c-479a-ab34-f6fdb54491d6 .ci .reactive.active{stroke-width:1.5}#chart-c2e5d408-d45c-479a-ab34-f6fdb54491d6 .series text{fill:rgba(0,0,0,1)}#chart-c2e5d408-d45c-479a-ab34-f6fdb54491d6 .tooltip rect{fill:rgba(255,255,255,1);stroke:rgba(0,0,0,1);-webkit-transition:opacity 150ms;-moz-transition:opacity 150ms;transition:opacity 150ms}#chart-c2e5d408-d45c-479a-ab34-f6fdb54491d6 .tooltip .label{fill:rgba(0,0,0,.87)}#chart-c2e5d408-d45c-479a-ab34-f6fdb54491d6 .tooltip .label{fill:rgba(0,0,0,.87)}#chart-c2e5d408-d45c-479a-ab34-f6fdb54491d6 .tooltip .legend{font-size:.8em;fill:rgba(0,0,0,.54)}#chart-c2e5d408-d45c-479a-ab34-f6fdb54491d6 .tooltip .x_label{font-size:.6em;fill:rgba(0,0,0,1)}#chart-c2e5d408-d45c-479a-ab34-f6fdb54491d6 .tooltip .xlink{font-size:.5em;text-decoration:underline}#chart-c2e5d408-d45c-479a-ab34-f6fdb54491d6 .tooltip .value{font-size:1.5em}#chart-c2e5d408-d45c-479a-ab34-f6fdb54491d6 .bound{font-size:.5em}#chart-c2e5d408-d45c-479a-ab34-f6fdb54491d6 .max-value{font-size:.75em;fill:rgba(0,0,0,.54)}#chart-c2e5d408-d45c-479a-ab34-f6fdb54491d6 .map-element{fill:rgba(255,255,255,1);stroke:rgba(0,0,0,.54) !important}#chart-c2e5d408-d45c-479a-ab34-f6fdb54491d6 .map-element .reactive{fill-opacity:inherit;stroke-opacity:inherit}#chart-c2e5d408-d45c-479a-ab34-f6fdb54491d6 .color-0,#chart-c2e5d408-d45c-479a-ab34-f6fdb54491d6 .color-0 a:visited{stroke:#F44336;fill:#F44336}#chart-c2e5d408-d45c-479a-ab34-f6fdb54491d6 .color-1,#chart-c2e5d408-d45c-479a-ab34-f6fdb54491d6 .color-1 a:visited{stroke:#3F51B5;fill:#3F51B5}#chart-c2e5d408-d45c-479a-ab34-f6fdb54491d6 .color-2,#chart-c2e5d408-d45c-479a-ab34-f6fdb54491d6 .color-2 a:visited{stroke:#009688;fill:#009688}#chart-c2e5d408-d45c-479a-ab34-f6fdb54491d6 .text-overlay .color-0 text{fill:black}#chart-c2e5d408-d45c-479a-ab34-f6fdb54491d6 .text-overlay .color-1 text{fill:black}#chart-c2e5d408-d45c-479a-ab34-f6fdb54491d6 .text-overlay .color-2 text{fill:black}
#chart-c2e5d408-d45c-479a-ab34-f6fdb54491d6 text.no_data{text-anchor:middle}#chart-c2e5d408-d45c-479a-ab34-f6fdb54491d6 .guide.line{fill:none}#chart-c2e5d408-d45c-479a-ab34-f6fdb54491d6 .centered{text-anchor:middle}#chart-c2e5d408-d45c-479a-ab34-f6fdb54491d6 .title{text-anchor:middle}#chart-c2e5d408-d45c-479a-ab34-f6fdb54491d6 .legends .legend text{fill-opacity:1}#chart-c2e5d408-d45c-479a-ab34-f6fdb54491d6 .axis.x text{text-anchor:middle}#chart-c2e5d408-d45c-479a-ab34-f6fdb54491d6 .axis.x:not(.web) text[transform]{text-anchor:start}#chart-c2e5d408-d45c-479a-ab34-f6fdb54491d6 .axis.x:not(.web) text[transform].backwards{text-anchor:end}#chart-c2e5d408-d45c-479a-ab34-f6fdb54491d6 .axis.y text{text-anchor:end}#chart-c2e5d408-d45c-479a-ab34-f6fdb54491d6 .axis.y text[transform].backwards{text-anchor:start}#chart-c2e5d408-d45c-479a-ab34-f6fdb54491d6 .axis.y2 text{text-anchor:start}#chart-c2e5d408-d45c-479a-ab34-f6fdb54491d6 .axis.y2 text[transform].backwards{text-anchor:end}#chart-c2e5d408-d45c-479a-ab34-f6fdb54491d6 .axis .guide.line{stroke-dasharray:4,4}#chart-c2e5d408-d45c-479a-ab34-f6fdb54491d6 .axis .major.guide.line{stroke-dasharray:6,6}#chart-c2e5d408-d45c-479a-ab34-f6fdb54491d6 .horizontal .axis.y .guide.line,#chart-c2e5d408-d45c-479a-ab34-f6fdb54491d6 .horizontal .axis.y2 .guide.line,#chart-c2e5d408-d45c-479a-ab34-f6fdb54491d6 .vertical .axis.x .guide.line{opacity:0}#chart-c2e5d408-d45c-479a-ab34-f6fdb54491d6 .horizontal .axis.always_show .guide.line,#chart-c2e5d408-d45c-479a-ab34-f6fdb54491d6 .vertical .axis.always_show .guide.line{opacity:1 !important}#chart-c2e5d408-d45c-479a-ab34-f6fdb54491d6 .axis.y .guides:hover .guide.line,#chart-c2e5d408-d45c-479a-ab34-f6fdb54491d6 .axis.y2 .guides:hover .guide.line,#chart-c2e5d408-d45c-479a-ab34-f6fdb54491d6 .axis.x .guides:hover .guide.line{opacity:1}#chart-c2e5d408-d45c-479a-ab34-f6fdb54491d6 .axis .guides:hover text{opacity:1}#chart-c2e5d408-d45c-479a-ab34-f6fdb54491d6 .nofill{fill:none}#chart-c2e5d408-d45c-479a-ab34-f6fdb54491d6 .subtle-fill{fill-opacity:.2}#chart-c2e5d408-d45c-479a-ab34-f6fdb54491d6 .dot{stroke-width:1px;fill-opacity:1}#chart-c2e5d408-d45c-479a-ab34-f6fdb54491d6 .dot.active{stroke-width:5px}#chart-c2e5d408-d45c-479a-ab34-f6fdb54491d6 .dot.negative{fill:transparent}#chart-c2e5d408-d45c-479a-ab34-f6fdb54491d6 text,#chart-c2e5d408-d45c-479a-ab34-f6fdb54491d6 tspan{stroke:none !important}#chart-c2e5d408-d45c-479a-ab34-f6fdb54491d6 .series text.active{opacity:1}#chart-c2e5d408-d45c-479a-ab34-f6fdb54491d6 .tooltip rect{fill-opacity:.95;stroke-width:.5}#chart-c2e5d408-d45c-479a-ab34-f6fdb54491d6 .tooltip text{fill-opacity:1}#chart-c2e5d408-d45c-479a-ab34-f6fdb54491d6 .showable{visibility:hidden}#chart-c2e5d408-d45c-479a-ab34-f6fdb54491d6 .showable.shown{visibility:visible}#chart-c2e5d408-d45c-479a-ab34-f6fdb54491d6 .gauge-background{fill:rgba(229,229,229,1);stroke:none}#chart-c2e5d408-d45c-479a-ab34-f6fdb54491d6 .bg-lines{stroke:rgba(249,249,249,1);stroke-width:2px}</style><script type="text/javascript">window.pygal = window.pygal || {};window.pygal.config = window.pygal.config || {};window.pygal.config['c2e5d408-d45c-479a-ab34-f6fdb54491d6'] = {"allow_interruptions": false, "box_mode": "extremes", "classes": ["pygal-chart"], "css": ["file://style.css", "file://graph.css"], "defs": [], "disable_xml_declaration": false, "dots_size": 2.5, "dynamic_print_values": false, "explicit_size": false, "fill": false, "force_uri_protocol": "https", "formatter": null, "half_pie": false, "height": 600, "include_x_axis": false, "inner_radius": 0, "interpolate": null, "interpolation_parameters": {}, "interpolation_precision": 250, "inverse_y_axis": false, "js": ["//kozea.github.io/pygal.js/2.0.x/pygal-tooltips.min.js"], "legend_at_bottom": false, "legend_at_bottom_columns": null, "legend_box_size": 12, "logarithmic": false, "margin": 20, "margin_bottom": null, "margin_left": null, "margin_right": null, "margin_top": null, "max_scale": 16, "min_scale": 4, "missing_value_fill_truncation": "x", "no_data_text": "No data", "no_prefix": false, "order_min": null, "pretty_print": false, "print_labels": false, "print_values": false, "print_values_position": "center", "print_zeroes": true, "range": null, "rounded_bars": null, "secondary_range": null, "show_dots": true, "show_legend": true, "show_minor_x_labels": true, "show_minor_y_labels": true, "show_only_major_dots": false, "show_x_guides": false, "show_x_labels": true, "show_y_guides": true, "show_y_labels": true, "spacing": 10, "stack_from_top": false, "strict": false, "stroke": true, "stroke_style": null, "style": {"background": "rgba(249, 249, 249, 1)", "ci_colors": [], "colors": ["#F44336", "#3F51B5", "#009688", "#FFC107", "#FF5722", "#9C27B0", "#03A9F4", "#8BC34A", "#FF9800", "#E91E63", "#2196F3", "#4CAF50", "#FFEB3B", "#673AB7", "#00BCD4", "#CDDC39", "#9E9E9E", "#607D8B"], "font_family": "Consolas, \"Liberation Mono\", Menlo, Courier, monospace", "foreground": "rgba(0, 0, 0, .87)", "foreground_strong": "rgba(0, 0, 0, 1)", "foreground_subtle": "rgba(0, 0, 0, .54)", "guide_stroke_dasharray": "4,4", "label_font_family": "Consolas, \"Liberation Mono\", Menlo, Courier, monospace", "label_font_size": 10, "legend_font_family": "Consolas, \"Liberation Mono\", Menlo, Courier, monospace", "legend_font_size": 14, "major_guide_stroke_dasharray": "6,6", "major_label_font_family": "Consolas, \"Liberation Mono\", Menlo, Courier, monospace", "major_label_font_size": 10, "no_data_font_family": "Consolas, \"Liberation Mono\", Menlo, Courier, monospace", "no_data_font_size": 64, "opacity": ".7", "opacity_hover": ".8", "plot_background": "rgba(255, 255, 255, 1)", "stroke_opacity": ".8", "stroke_opacity_hover": ".9", "title_font_family": "Consolas, \"Liberation Mono\", Menlo, Courier, monospace", "title_font_size": 16, "tooltip_font_family": "Consolas, \"Liberation Mono\", Menlo, Courier, monospace", "tooltip_font_size": 14, "transition": "150ms", "value_background": "rgba(229, 229, 229, 1)", "value_colors": [], "value_font_family": "Consolas, \"Liberation Mono\", Menlo, Courier, monospace", "value_font_size": 16, "value_label_font_family": "Consolas, \"Liberation Mono\", Menlo, Courier, monospace", "value_label_font_size": 10}, "title": "Facturas x Cliente", "tooltip_border_radius": 0, "tooltip_fancy_mode": true, "truncate_label": null, "truncate_legend": null, "width": 800, "x_label_rotation": 0, "x_labels": null, "x_labels_major": null, "x_labels_major_count": null, "x_labels_major_every": null, "x_title": null, "xrange": null, "y_label_rotation": 0, "y_labels": null, "y_labels_major": null, "y_labels_major_count": null, "y_labels_major_every": null, "y_title": null, "zero": 0, "legends": ["2019", "2018", "2017"]}</script><script type="text/javascript" xlink:href="https://kozea.github.io/pygal.js/2.0.x/pygal-tooltips.min.js" /></defs><title>Facturas x Cliente</title><g class="graph pie-graph vertical"><rect class="background" height="600" width="800" x="0" y="0" /><g class="plot" transform="translate(75, 46)"><rect class="background" height="534" width="704.4" x="0" y="0" /><g class="series serie-0 color-0"><g class="slices"><g class="slice"><path class="slice reactive tooltip-trigger" d="M352.200000 0.000000 A267.000000 267.000000 0 0 1 512.390949 53.393212 L496.371854 74.753891 A240.300000 240.300000 0 0 0 352.200000 26.700000 z" /><desc class="value">119</desc><desc class="x centered">432.4060747083794</desc><desc class="y centered">26.364782128895627</desc></g><g class="slice"><path class="slice reactive tooltip-trigger" d="M512.390949 53.393212 A267.000000 267.000000 0 0 1 593.071013 151.803841 L568.983912 163.323457 A240.300000 240.300000 0 0 0 496.371854 74.753891 z" /><desc class="value">89</desc><desc class="x centered">548.3556478011259</desc><desc class="y centered">106.18555930601056</desc></g><g class="slice"><path class="slice reactive tooltip-trigger" d="M593.071013 151.803841 A267.000000 267.000000 0 0 1 617.226405 234.596225 L590.723765 237.836603 A240.300000 240.300000 0 0 0 568.983912 163.323457 z" /><desc class="value">60</desc><desc class="x centered">595.6979803639761</desc><desc class="y centered">195.9573645008523</desc></g><g class="slice"><path class="slice reactive tooltip-trigger" d="M617.226405 234.596225 A267.000000 267.000000 0 0 1 619.081935 259.060673 L592.393741 259.854606 A240.300000 240.300000 0 0 0 590.723765 237.836603 z" /><desc class="value">17</desc><desc class="x centered">605.1235578851838</desc><desc class="y centered">247.81676860640755</desc></g><g class="slice"><path class="slice reactive tooltip-trigger" d="M619.081935 259.060673 A267.000000 267.000000 0 0 1 618.769780 282.150988 L592.112802 280.635889 A240.300000 240.300000 0 0 0 592.393741 259.854606 z" /><desc class="value">16</desc><desc class="x centered">605.8268246791495</desc><desc class="y centered">270.4287465890532</desc></g><g class="slice"><path class="slice reactive tooltip-trigger" d="M618.769780 282.150988 A267.000000 267.000000 0 0 1 616.463615 305.127969 L590.037253 301.315172 A240.300000 240.300000 0 0 0 592.112802 280.635889 z" /><desc class="value">16</desc><desc class="x centered">604.5819580433725</desc><desc class="y centered">292.3312011991801</desc></g><g class="slice"><path class="slice reactive tooltip-trigger" d="M616.463615 305.127969 A267.000000 267.000000 0 0 1 612.505753 326.413089 L586.475177 320.471780 A240.300000 240.300000 0 0 0 590.037253 301.315172 z" /><desc class="value">15</desc><desc class="x centered">601.5754873148665</desc><desc class="y centered">313.37012860099577</desc></g><g class="slice"><path class="slice reactive tooltip-trigger" d="M612.505753 326.413089 A267.000000 267.000000 0 0 1 608.914275 340.394692 L583.242848 333.055223 A240.300000 240.300000 0 0 0 586.475177 320.471780 z" /><desc class="value">10</desc><desc class="x centered">597.8742956190641</desc><desc class="y centered">330.1067585293104</desc></g><g class="slice"><path class="slice reactive tooltip-trigger" d="M608.914275 340.394692 A267.000000 267.000000 0 0 1 605.040011 352.795855 L579.756010 344.216270 A240.300000 240.300000 0 0 0 583.242848 333.055223 z" /><desc class="value">9</desc><desc class="x centered">594.309955522005</desc><desc class="y centered">342.6379001369866</desc></g><g class="slice"><path class="slice reactive tooltip-trigger" d="M605.040011 352.795855 A267.000000 267.000000 0 0 1 600.567070 364.993871 L575.730363 355.194484 A240.300000 240.300000 0 0 0 579.756010 344.216270 z" /><desc class="value">9</desc><desc class="x centered">590.3438587499771</desc><desc class="y centered">354.3259700184941</desc></g><g class="slice"><path class="slice reactive tooltip-trigger" d="M600.567070 364.993871 A267.000000 267.000000 0 0 1 596.097059 375.642646 L571.707353 364.778381 A240.300000 240.300000 0 0 0 575.730363 355.194484 z" /><desc class="value">8</desc><desc class="x centered">586.0801646604907</desc><desc class="y centered">365.1753078853423</desc></g><g class="slice"><path class="slice reactive tooltip-trigger" d="M596.097059 375.642646 A267.000000 267.000000 0 0 1 593.071013 382.196159 L568.983912 370.676543 A240.300000 240.300000 0 0 0 571.707353 364.778381 z" /><desc class="value">5</desc><desc class="x centered">582.4858749408604</desc><desc class="y centered">373.33314771378866</desc></g><g class="slice"><path class="slice reactive tooltip-trigger" d="M593.071013 382.196159 A267.000000 267.000000 0 0 1 590.523307 387.378576 L566.690976 375.340718 A240.300000 240.300000 0 0 0 568.983912 370.676543 z" /><desc class="value">4</desc><desc class="x centered">579.8306125495382</desc><desc class="y centered">378.904542938712</desc></g><g class="slice"><path class="slice reactive tooltip-trigger" d="M590.523307 387.378576 A267.000000 267.000000 0 0 1 588.539297 391.228565 L564.905368 378.805709 A240.300000 240.300000 0 0 0 566.690976 375.340718 z" /><desc class="value">3</desc><desc class="x centered">577.6721532577367</desc><desc class="y centered">383.1922140477568</desc></g><g class="slice"><path class="slice reactive tooltip-trigger" d="M588.539297 391.228565 A267.000000 267.000000 0 0 1 586.493099 395.045866 L563.063789 382.241279 A240.300000 240.300000 0 0 0 564.905368 378.805709 z" /><desc class="value">3</desc><desc class="x centered">575.7577416946158</desc><desc class="y centered">386.8342965448684</desc></g><g class="slice"><path class="slice reactive tooltip-trigger" d="M586.493099 395.045866 A267.000000 267.000000 0 0 1 584.385250 398.829473 L561.166725 385.646526 A240.300000 240.300000 0 0 0 563.063789 382.241279 z" /><desc class="value">3</desc><desc class="x centered">573.7845040147536</desc><desc class="y centered">390.44484631014643</desc></g><g class="slice"><path class="slice reactive tooltip-trigger" d="M584.385250 398.829473 A267.000000 267.000000 0 0 1 582.216304 402.578391 L559.214673 389.020552 A240.300000 240.300000 0 0 0 561.166725 385.646526 z" /><desc class="value">3</desc><desc class="x centered">571.7529594482568</desc><desc class="y centered">394.02291327753466</desc></g><g class="slice"><path class="slice reactive tooltip-trigger" d="M582.216304 402.578391 A267.000000 267.000000 0 0 1 580.736679 405.057910 L557.883011 391.252119 A240.300000 240.300000 0 0 0 559.214673 389.020552 z" /><desc class="value">2</desc><desc class="x centered">570.015850869858</desc><desc class="y centered">396.9791429800942</desc></g><g class="slice"><path class="slice reactive tooltip-trigger" d="M580.736679 405.057910 A267.000000 267.000000 0 0 1 579.230326 407.521283 L556.527293 393.469155 A240.300000 240.300000 0 0 0 557.883011 391.252119 z" /><desc class="value">2</desc><desc class="x centered">568.5974907246938</desc><desc class="y centered">399.3270513087029</desc></g><g class="slice"><path class="slice reactive tooltip-trigger" d="M579.230326 407.521283 A267.000000 267.000000 0 0 1 577.697422 409.968223 L555.147680 395.671400 A240.300000 240.300000 0 0 0 556.527293 393.469155 z" /><desc class="value">2</desc><desc class="x centered">567.1538227174028</desc><desc class="y centered">401.65948388128993</desc></g><g class="slice"><path class="slice reactive tooltip-trigger" d="M577.697422 409.968223 A267.000000 267.000000 0 0 1 576.138146 412.398442 L553.744331 397.858597 A240.300000 240.300000 0 0 0 555.147680 395.671400 z" /><desc class="value">2</desc><desc class="x centered">565.68501568613</desc><desc class="y centered">403.9761679179734</desc></g><g class="slice"><path class="slice reactive tooltip-trigger" d="M576.138146 412.398442 A267.000000 267.000000 0 0 1 574.552680 414.811656 L552.317412 400.030490 A240.300000 240.300000 0 0 0 553.744331 397.858597 z" /><desc class="value">2</desc><desc class="x centered">564.1912414090494</desc><desc class="y centered">406.27683248067547</desc></g><g class="slice"><path class="slice reactive tooltip-trigger" d="M574.552680 414.811656 A267.000000 267.000000 0 0 1 572.941210 417.207584 L550.867089 402.186826 A240.300000 240.300000 0 0 0 552.317412 400.030490 z" /><desc class="value">2</desc><desc class="x centered">562.6726745842749</desc><desc class="y centered">408.56120850480863</desc></g><g class="slice"><path class="slice reactive tooltip-trigger" d="M572.941210 417.207584 A267.000000 267.000000 0 0 1 572.125782 418.398978 L550.133204 403.259080 A240.300000 240.300000 0 0 0 550.867089 402.186826 z" /><desc class="value">1</desc><desc class="x centered">561.5175860839086</desc><desc class="y centered">410.2636403837538</desc></g><g class="slice"><path class="slice reactive tooltip-trigger" d="M572.125782 418.398978 A267.000000 267.000000 0 0 1 571.303924 419.585945 L549.393531 404.327350 A240.300000 240.300000 0 0 0 550.133204 403.259080 z" /><desc class="value">1</desc><desc class="x centered">560.7398723663886</desc><desc class="y centered">411.3933659605259</desc></g><g class="slice"><path class="slice reactive tooltip-trigger" d="M571.303924 419.585945 A267.000000 267.000000 0 0 1 570.475660 420.768451 L548.648094 405.391606 A240.300000 240.300000 0 0 0 549.393531 404.327350 z" /><desc class="value">1</desc><desc class="x centered">559.9560613774797</desc><desc class="y centered">412.5188697761114</desc></g><g class="slice"><path class="slice reactive tooltip-trigger" d="M570.475660 420.768451 A267.000000 267.000000 0 0 1 569.641013 421.946461 L547.896912 406.451815 A240.300000 240.300000 0 0 0 548.648094 405.391606 z" /><desc class="value">1</desc><desc class="x centered">559.1661760341824</desc><desc class="y centered">413.6401189231236</desc></g><g class="slice"><path class="slice reactive tooltip-trigger" d="M569.641013 421.946461 A267.000000 267.000000 0 0 1 568.800010 423.119940 L547.140009 407.507946 A240.300000 240.300000 0 0 0 547.896912 406.451815 z" /><desc class="value">1</desc><desc class="x centered">558.3702394310982</desc><desc class="y centered">414.7570806185736</desc></g><g class="slice"><desc class="value">0</desc><desc class="x centered">557.9700091725958</desc><desc class="y centered">415.3139434615296</desc></g><g class="slice"><desc class="value">0</desc><desc class="x centered">557.9700091725958</desc><desc class="y centered">415.3139434615296</desc></g><g class="slice"><desc class="value">0</desc><desc class="x centered">557.9700091725958</desc><desc class="y centered">415.3139434615296</desc></g><g class="slice"><desc class="value">0</desc><desc class="x centered">557.9700091725958</desc><desc class="y centered">415.3139434615296</desc></g><g class="big_slice"><path class="slice reactive tooltip-trigger" d="M352.200000 26.700000 A240.300000 240.300000 0 0 1 547.140009 407.507946 L352.200000 267.000000 A0.000000 0.000000 0 0 0 352.200000 267.000000 z" /><desc class="value">406</desc><desc class="x centered">459.1510107063442</desc><desc class="y centered">212.2505359944826</desc></g></g></g><g class="series serie-1 color-1"><g class="slices"><g class="slice"><path class="slice reactive tooltip-trigger" d="M568.800010 423.119940 A267.000000 267.000000 0 0 1 393.896703 530.724070 L389.727033 504.351663 A240.300000 240.300000 0 0 0 547.140009 407.507946 z" /><desc class="value">146</desc><desc class="x centered">485.1116209906178</desc><desc class="y centered">483.03893979013685</desc></g><g class="slice"><path class="slice reactive tooltip-trigger" d="M393.896703 530.724070 A267.000000 267.000000 0 0 1 283.676545 525.057234 L290.528891 499.251511 A240.300000 240.300000 0 0 0 389.727033 504.351663 z" /><desc class="value">77</desc><desc class="x centered">339.17609565310437</desc><desc class="y centered">520.3154168533035</desc></g><g class="slice"><path class="slice reactive tooltip-trigger" d="M283.676545 525.057234 A267.000000 267.000000 0 0 1 245.539112 511.770209 L256.205201 487.293188 A240.300000 240.300000 0 0 0 290.528891 499.251511 z" /><desc class="value">28</desc><desc class="x centered">268.74843591268836</desc><desc class="y centered">506.52903571671914</desc></g><g class="slice"><path class="slice reactive tooltip-trigger" d="M245.539112 511.770209 A267.000000 267.000000 0 0 1 211.065430 493.649582 L225.178887 470.984624 A240.300000 240.300000 0 0 0 256.205201 487.293188 z" /><desc class="value">27</desc><desc class="x centered">234.18286281839835</desc><desc class="y centered">491.5223325895645</desc></g><g class="slice"><path class="slice reactive tooltip-trigger" d="M211.065430 493.649582 A267.000000 267.000000 0 0 1 188.565225 477.980237 L204.928702 456.882213 A240.300000 240.300000 0 0 0 225.178887 470.984624 z" /><desc class="value">19</desc><desc class="x centered">207.24335235191688</desc><desc class="y centered">475.14872760271555</desc></g><g class="slice"><path class="slice reactive tooltip-trigger" d="M188.565225 477.980237 A267.000000 267.000000 0 0 1 172.009689 464.029063 L190.028720 444.326157 A240.300000 240.300000 0 0 0 204.928702 456.882213 z" /><desc class="value">15</desc><desc class="x centered">188.74869322258374</desc><desc class="y centered">460.9638956423462</desc></g><g class="slice"><path class="slice reactive tooltip-trigger" d="M172.009689 464.029063 A267.000000 267.000000 0 0 1 157.624685 449.837214 L177.082216 431.553492 A240.300000 240.300000 0 0 0 190.028720 444.326157 z" /><desc class="value">14</desc><desc class="x centered">174.05873452834302</desc><desc class="y centered">447.565810817432</desc></g><g class="slice"><path class="slice reactive tooltip-trigger" d="M157.624685 449.837214 A267.000000 267.000000 0 0 1 145.263464 435.719501 L165.957117 418.847551 A240.300000 240.300000 0 0 0 177.082216 431.553492 z" /><desc class="value">13</desc><desc class="x centered">161.36401222141913</desc><desc class="y centered">434.0926337950699</desc></g><g class="slice"><path class="slice reactive tooltip-trigger" d="M145.263464 435.719501 A267.000000 267.000000 0 0 1 133.924340 420.768451 L155.751906 405.391606 A240.300000 240.300000 0 0 0 165.957117 418.847551 z" /><desc class="value">13</desc><desc class="x centered">150.0993918234741</desc><desc class="y centered">420.276438746072</desc></g><g class="slice"><path class="slice reactive tooltip-trigger" d="M133.924340 420.768451 A267.000000 267.000000 0 0 1 123.663321 405.057910 L146.516989 391.252119 A240.300000 240.300000 0 0 0 155.751906 405.391606 z" /><desc class="value">13</desc><desc class="x centered">139.83298384647853</desc><desc class="y centered">405.70318291246946</desc></g><g class="slice"><path class="slice reactive tooltip-trigger" d="M123.663321 405.057910 A267.000000 267.000000 0 0 1 114.531087 388.665476 L138.297979 376.498928 A240.300000 240.300000 0 0 0 146.516989 391.252119 z" /><desc class="value">13</desc><desc class="x centered">130.61549598524647</desc><desc class="y centered">390.4448463101465</desc></g><g class="slice"><path class="slice reactive tooltip-trigger" d="M114.531087 388.665476 A267.000000 267.000000 0 0 1 110.709621 380.892040 L134.858659 369.502836 A240.300000 240.300000 0 0 0 138.297979 376.498928 z" /><desc class="value">6</desc><desc class="x centered">124.5693874504619</desc><desc class="y centered">378.9045429387122</desc></g><g class="slice"><path class="slice reactive tooltip-trigger" d="M110.709621 380.892040 A267.000000 267.000000 0 0 1 107.719055 374.322260 L132.167149 363.590034 A240.300000 240.300000 0 0 0 134.858659 369.502836 z" /><desc class="value">5</desc><desc class="x centered">121.34252807405417</desc><desc class="y centered">372.0863937717968</desc></g><g class="slice"><path class="slice reactive tooltip-trigger" d="M107.719055 374.322260 A267.000000 267.000000 0 0 1 105.455160 369.009724 L130.129644 358.808752 A240.300000 240.300000 0 0 0 132.167149 363.590034 z" /><desc class="value">4</desc><desc class="x centered">118.85410695925896</desc><desc class="y centered">366.43850713390185</desc></g><g class="slice"><path class="slice reactive tooltip-trigger" d="M105.455160 369.009724 A267.000000 267.000000 0 0 1 104.366433 366.335406 L129.149789 356.401865 A240.300000 240.300000 0 0 0 130.129644 358.808752 z" /><desc class="value">2</desc><desc class="x centered">117.27182202728724</desc><desc class="y centered">362.6403350810807</desc></g><g class="slice"><path class="slice reactive tooltip-trigger" d="M104.366433 366.335406 A267.000000 267.000000 0 0 1 103.306690 363.649470 L128.196021 353.984523 A240.300000 240.300000 0 0 0 129.149789 356.401865 z" /><desc class="value">2</desc><desc class="x centered">116.2512837561014</desc><desc class="y centered">360.09417706202805</desc></g><g class="slice"><path class="slice reactive tooltip-trigger" d="M103.306690 363.649470 A267.000000 267.000000 0 0 1 102.276055 360.952231 L127.268450 351.557008 A240.300000 240.300000 0 0 0 128.196021 353.984523 z" /><desc class="value">2</desc><desc class="x centered">115.25833987873074</desc><desc class="y centered">357.53713160343074</desc></g><g class="slice"><path class="slice reactive tooltip-trigger" d="M102.276055 360.952231 A267.000000 267.000000 0 0 1 101.274649 358.244004 L126.367184 349.119604 A240.300000 240.300000 0 0 0 127.268450 351.557008 z" /><desc class="value">2</desc><desc class="x centered">114.2931065207674</desc><desc class="y centered">354.96949775382996</desc></g><g class="slice"><path class="slice reactive tooltip-trigger" d="M101.274649 358.244004 A267.000000 267.000000 0 0 1 100.302589 355.525106 L125.492330 346.672596 A240.300000 240.300000 0 0 0 126.367184 349.119604 z" /><desc class="value">2</desc><desc class="x centered">113.3556965670358</desc><desc class="y centered">352.3915758000877</desc></g><g class="slice"><path class="slice reactive tooltip-trigger" d="M100.302589 355.525106 A267.000000 267.000000 0 0 1 99.827600 354.161755 L125.064840 345.445579 A240.300000 240.300000 0 0 0 125.492330 346.672596 z" /><desc class="value">1</desc><desc class="x centered">112.6709642832806</desc><desc class="y centered">350.45156408731094</desc></g><g class="slice"><path class="slice reactive tooltip-trigger" d="M99.827600 354.161755 A267.000000 267.000000 0 0 1 99.359989 352.795855 L124.643990 344.216270 A240.300000 240.300000 0 0 0 125.064840 345.445579 z" /><desc class="value">1</desc><desc class="x centered">112.22322749195959</desc><desc class="y centered">349.15516512444134</desc></g><g class="slice"><path class="slice reactive tooltip-trigger" d="M99.359989 352.795855 A267.000000 267.000000 0 0 1 98.899771 351.427447 L124.229794 342.984702 A240.300000 240.300000 0 0 0 124.643990 344.216270 z" /><desc class="value">1</desc><desc class="x centered">111.78250712149085</desc><desc class="y centered">347.8563641157084</desc></g><g class="slice"><path class="slice reactive tooltip-trigger" d="M98.899771 351.427447 A267.000000 267.000000 0 0 1 98.446958 350.056570 L123.822263 341.750913 A240.300000 240.300000 0 0 0 124.229794 342.984702 z" /><desc class="value">1</desc><desc class="x centered">111.3488160576199</desc><desc class="y centered">346.5551990353477</desc></g><g class="slice"><path class="slice reactive tooltip-trigger" d="M98.446958 350.056570 A267.000000 267.000000 0 0 1 98.001565 348.683265 L123.421409 340.514939 A240.300000 240.300000 0 0 0 123.822263 341.750913 z" /><desc class="value">1</desc><desc class="x centered">110.92216698056973</desc><desc class="y centered">345.2517079267152</desc></g><g class="slice"><path class="slice reactive tooltip-trigger" d="M98.001565 348.683265 A267.000000 267.000000 0 0 1 97.563605 347.307572 L123.027244 339.276815 A240.300000 240.300000 0 0 0 123.421409 340.514939 z" /><desc class="value">1</desc><desc class="x centered">110.50257236467058</desc><desc class="y centered">343.9459289011752</desc></g><g class="slice"><path class="slice reactive tooltip-trigger" d="M97.563605 347.307572 A267.000000 267.000000 0 0 1 97.133089 345.929531 L122.639780 338.036578 A240.300000 240.300000 0 0 0 123.027244 339.276815 z" /><desc class="value">1</desc><desc class="x centered">110.09004447799475</desc><desc class="y centered">342.6379001369859</desc></g><g class="slice"><path class="slice reactive tooltip-trigger" d="M97.133089 345.929531 A267.000000 267.000000 0 0 1 96.710031 344.549181 L122.259028 336.794263 A240.300000 240.300000 0 0 0 122.639780 338.036578 z" /><desc class="value">1</desc><desc class="x centered">109.68459538199824</desc><desc class="y centered">341.3276598781832</desc></g><g class="slice"><path class="slice reactive tooltip-trigger" d="M96.710031 344.549181 A267.000000 267.000000 0 0 1 96.294442 343.166565 L121.884998 335.549909 A240.300000 240.300000 0 0 0 122.259028 336.794263 z" /><desc class="value">1</desc><desc class="x centered">109.28623693116779</desc><desc class="y centered">340.0152464334625</desc></g><g class="slice"><path class="slice reactive tooltip-trigger" d="M96.294442 343.166565 A267.000000 267.000000 0 0 1 95.886336 341.781722 L121.517703 334.303549 A240.300000 240.300000 0 0 0 121.884998 335.549909 z" /><desc class="value">1</desc><desc class="x centered">108.89498077267461</desc><desc class="y centered">338.7006981750585</desc></g><g class="slice"><path class="slice reactive tooltip-trigger" d="M95.886336 341.781722 A267.000000 267.000000 0 0 1 95.485725 340.394692 L121.157152 333.055223 A240.300000 240.300000 0 0 0 121.517703 334.303549 z" /><desc class="value">1</desc><desc class="x centered">108.51083834603367</desc><desc class="y centered">337.3840535376236</desc></g><g class="slice"><path class="slice reactive tooltip-trigger" d="M95.485725 340.394692 A267.000000 267.000000 0 0 1 95.092618 339.005516 L120.803357 331.804964 A240.300000 240.300000 0 0 0 121.157152 333.055223 z" /><desc class="value">1</desc><desc class="x centered">108.13382088276907</desc><desc class="y centered">336.0653510171038</desc></g><g class="slice"><path class="slice reactive tooltip-trigger" d="M95.092618 339.005516 A267.000000 267.000000 0 0 1 94.707030 337.614235 L120.456327 330.552811 A240.300000 240.300000 0 0 0 120.803357 331.804964 z" /><desc class="value">1</desc><desc class="x centered">107.76393940608602</desc><desc class="y centered">334.74462916961335</desc></g><g class="big_slice"><path class="slice reactive tooltip-trigger" d="M547.140009 407.507946 A240.300000 240.300000 0 0 1 120.456327 330.552811 L352.200000 267.000000 A0.000000 0.000000 0 0 0 352.200000 267.000000 z" /><desc class="value">416</desc><desc class="x centered">330.8742489017825</desc><desc class="y centered">385.2422717986122</desc></g></g></g><g class="series serie-2 color-2"><g class="slices"><g class="slice"><path class="slice reactive tooltip-trigger" d="M94.707030 337.614235 A267.000000 267.000000 0 0 1 101.771691 174.400529 L126.814522 183.660476 A240.300000 240.300000 0 0 0 120.456327 330.552811 z" /><desc class="value">115</desc><desc class="x centered">98.78728189517085</desc><desc class="y centered">256.0310983812233</desc></g><g class="slice"><path class="slice reactive tooltip-trigger" d="M101.771691 174.400529 A267.000000 267.000000 0 0 1 167.790652 73.914029 L186.231586 93.222626 A240.300000 240.300000 0 0 0 126.814522 183.660476 z" /><desc class="value">84</desc><desc class="x centered">140.20875859095096</desc><desc class="y centered">127.72316751932397</desc></g><g class="slice"><path class="slice reactive tooltip-trigger" d="M167.790652 73.914029 A267.000000 267.000000 0 0 1 195.495029 50.822869 L211.165526 72.440582 A240.300000 240.300000 0 0 0 186.231586 93.222626 z" /><desc class="value">25</desc><desc class="x centered">189.7998823321538</desc><desc class="y centered">72.15512764901993</desc></g><g class="slice"><path class="slice reactive tooltip-trigger" d="M195.495029 50.822869 A267.000000 267.000000 0 0 1 222.258057 33.753154 L235.252251 57.077838 A240.300000 240.300000 0 0 0 211.165526 72.440582 z" /><desc class="value">22</desc><desc class="x centered">215.80151181725634</desc><desc class="y centered">53.14543511661495</desc></g><g class="slice"><path class="slice reactive tooltip-trigger" d="M222.258057 33.753154 A267.000000 267.000000 0 0 1 241.582743 23.992135 L252.644469 48.292921 A240.300000 240.300000 0 0 0 235.252251 57.077838 z" /><desc class="value">15</desc><desc class="x centered">237.84035280389298</desc><desc class="y centered">40.59285878492716</desc></g><g class="slice"><path class="slice reactive tooltip-trigger" d="M241.582743 23.992135 A267.000000 267.000000 0 0 1 258.923808 16.822959 L268.251427 41.840663 A240.300000 240.300000 0 0 0 252.644469 48.292921 z" /><desc class="value">13</desc><desc class="x centered">255.29076180467885</desc><desc class="y centered">32.59240188849998</desc></g><g class="slice"><path class="slice reactive tooltip-trigger" d="M258.923808 16.822959 A267.000000 267.000000 0 0 1 275.341846 11.301302 L283.027661 36.871172 A240.300000 240.300000 0 0 0 268.251427 41.840663 z" /><desc class="value">12</desc><desc class="x centered">271.34363588429176</desc><desc class="y centered">26.582507121490806</desc></g><g class="slice"><path class="slice reactive tooltip-trigger" d="M275.341846 11.301302 A267.000000 267.000000 0 0 1 286.471240 8.216828 L293.044116 34.095145 A240.300000 240.300000 0 0 0 283.027661 36.871172 z" /><desc class="value">8</desc><desc class="x centered">284.4553708303862</desc><desc class="y centered">22.56393940608615</desc></g><g class="slice"><path class="slice reactive tooltip-trigger" d="M286.471240 8.216828 A267.000000 267.000000 0 0 1 293.490892 6.534569 L299.361802 32.581112 A240.300000 240.300000 0 0 0 293.044116 34.095145 z" /><desc class="value">5</desc><desc class="x centered">293.0866116721794</desc><desc class="y centered">20.33437649237726</desc></g><g class="slice"><path class="slice reactive tooltip-trigger" d="M293.490892 6.534569 A267.000000 267.000000 0 0 1 299.137756 5.325778 L304.443980 31.493201 A240.300000 240.300000 0 0 0 299.361802 32.581112 z" /><desc class="value">4</desc><desc class="x centered">299.1055028494882</desc><desc class="y centered">18.969161448955532</desc></g><g class="slice"><path class="slice reactive tooltip-trigger" d="M299.137756 5.325778 A267.000000 267.000000 0 0 1 304.809442 4.239396 L309.548498 30.515456 A240.300000 240.300000 0 0 0 304.443980 31.493201 z" /><desc class="value">4</desc><desc class="x centered">304.48212866019674</desc><desc class="y centered">17.87889038702886</desc></g><g class="slice"><path class="slice reactive tooltip-trigger" d="M304.809442 4.239396 A267.000000 267.000000 0 0 1 309.077900 3.505248 L313.390110 29.854723 A240.300000 240.300000 0 0 0 309.548498 30.515456 z" /><desc class="value">3</desc><desc class="x centered">309.2050734259417</desc><desc class="y centered">17.020483261345305</desc></g><g class="slice"><path class="slice reactive tooltip-trigger" d="M309.077900 3.505248 A267.000000 267.000000 0 0 1 313.357706 2.840434 L317.241935 29.256391 A240.300000 240.300000 0 0 0 313.390110 29.854723 z" /><desc class="value">3</desc><desc class="x centered">313.26563227495103</desc><desc class="y centered">16.355954569332198</desc></g><g class="slice"><path class="slice reactive tooltip-trigger" d="M313.357706 2.840434 A267.000000 267.000000 0 0 1 317.647732 2.245131 L321.102959 28.720618 A240.300000 240.300000 0 0 0 317.241935 29.256391 z" /><desc class="value">3</desc><desc class="x centered">317.33643616241744</desc><desc class="y centered">15.75737937893021</desc></g><g class="slice"><path class="slice reactive tooltip-trigger" d="M317.647732 2.245131 A267.000000 267.000000 0 0 1 321.946850 1.719494 L324.972165 28.247545 A240.300000 240.300000 0 0 0 321.102959 28.720618 z" /><desc class="value">3</desc><desc class="x centered">321.4164139128008</desc><desc class="y centered">15.224915196892454</desc></g><g class="slice"><path class="slice reactive tooltip-trigger" d="M321.946850 1.719494 A267.000000 267.000000 0 0 1 324.817421 1.407842 L327.555679 27.967058 A240.300000 240.300000 0 0 0 324.972165 28.247545 z" /><desc class="value">2</desc><desc class="x centered">324.82262870764305</desc><desc class="y centered">14.831798116573708</desc></g><g class="slice"><path class="slice reactive tooltip-trigger" d="M324.817421 1.407842 A267.000000 267.000000 0 0 1 327.691195 1.127251 L330.142076 27.714526 A240.300000 240.300000 0 0 0 327.555679 27.967058 z" /><desc class="value">2</desc><desc class="x centered">327.55123246372005</desc><desc class="y centered">14.550478790427405</desc></g><g class="slice"><path class="slice reactive tooltip-trigger" d="M327.691195 1.127251 A267.000000 267.000000 0 0 1 330.567835 0.877755 L332.731052 27.489979 A240.300000 240.300000 0 0 0 330.142076 27.714526 z" /><desc class="value">2</desc><desc class="x centered">330.28271891316064</desc><desc class="y centered">14.29868364062591</desc></g><g class="slice"><path class="slice reactive tooltip-trigger" d="M330.567835 0.877755 A267.000000 267.000000 0 0 1 333.447005 0.659381 L335.322305 27.293443 A240.300000 240.300000 0 0 0 332.731052 27.489979 z" /><desc class="value">2</desc><desc class="x centered">333.01676860640816</desc><desc class="y centered">14.076442114816217</desc></g><g class="slice"><path class="slice reactive tooltip-trigger" d="M333.447005 0.659381 A267.000000 267.000000 0 0 1 336.328368 0.472157 L337.915531 27.124941 A240.300000 240.300000 0 0 0 335.322305 27.293443 z" /><desc class="value">2</desc><desc class="x centered">335.7530617941326</desc><desc class="y centered">13.883780204325149</desc></g><g class="slice"><path class="slice reactive tooltip-trigger" d="M336.328368 0.472157 A267.000000 267.000000 0 0 1 339.211587 0.316103 L340.510429 26.984492 A240.300000 240.300000 0 0 0 337.915531 27.124941 z" /><desc class="value">2</desc><desc class="x centered">338.4912784646253</desc><desc class="y centered">13.720720441119454</desc></g><g class="slice"><path class="slice reactive tooltip-trigger" d="M339.211587 0.316103 A267.000000 267.000000 0 0 1 340.653788 0.249770 L341.808409 26.924793 A240.300000 240.300000 0 0 0 340.510429 26.984492 z" /><desc class="value">1</desc><desc class="x centered">340.5460106180967</desc><desc class="y centered">13.617863629879224</desc></g><g class="slice"><path class="slice reactive tooltip-trigger" d="M340.653788 0.249770 A267.000000 267.000000 0 0 1 342.096326 0.191237 L343.106693 26.872114 A240.300000 240.300000 0 0 0 341.808409 26.924793 z" /><desc class="value">1</desc><desc class="x centered">341.91626632145733</desc><desc class="y centered">13.558552478824396</desc></g><g class="slice"><path class="slice reactive tooltip-trigger" d="M342.096326 0.191237 A267.000000 267.000000 0 0 1 343.539159 0.140505 L344.405243 26.826455 A240.300000 240.300000 0 0 0 343.106693 26.872114 z" /><desc class="value">1</desc><desc class="x centered">343.2868226997652</desc><desc class="y centered">13.506651427666469</desc></g><g class="slice"><path class="slice reactive tooltip-trigger" d="M343.539159 0.140505 A267.000000 267.000000 0 0 1 344.982246 0.097576 L345.704021 26.787818 A240.300000 240.300000 0 0 0 344.405243 26.826455 z" /><desc class="value">1</desc><desc class="x centered">344.65763968080734</desc><desc class="y centered">13.46216199388408</desc></g><g class="slice"><path class="slice reactive tooltip-trigger" d="M344.982246 0.097576 A267.000000 267.000000 0 0 1 346.425543 0.062450 L347.002989 26.756205 A240.300000 240.300000 0 0 0 345.704021 26.787818 z" /><desc class="value">1</desc><desc class="x centered">346.0286771847512</desc><desc class="y centered">13.425085478255568</desc></g><g class="slice"><path class="slice reactive tooltip-trigger" d="M346.425543 0.062450 A267.000000 267.000000 0 0 1 347.869010 0.035129 L348.302109 26.731616 A240.300000 240.300000 0 0 0 347.002989 26.756205 z" /><desc class="value">1</desc><desc class="x centered">347.3998951253166</desc><desc class="y centered">13.395422964820995</desc></g><g class="slice"><path class="slice reactive tooltip-trigger" d="M347.869010 0.035129 A267.000000 267.000000 0 0 1 349.312603 0.015613 L349.601343 26.714052 A240.300000 240.300000 0 0 0 348.302109 26.731616 z" /><desc class="value">1</desc><desc class="x centered">348.7712534109479</desc><desc class="y centered">13.373175320850436</desc></g><g class="slice"><path class="slice reactive tooltip-trigger" d="M349.312603 0.015613 A267.000000 267.000000 0 0 1 350.756280 0.003903 L350.900652 26.703513 A240.300000 240.300000 0 0 0 349.601343 26.714052 z" /><desc class="value">1</desc><desc class="x centered">350.14271194598587</desc><desc class="y centered">13.35834319681868</desc></g><g class="slice"><path class="slice reactive tooltip-trigger" d="M350.756280 0.003903 A267.000000 267.000000 0 0 1 352.200000 0.000000 L352.200000 26.700000 A240.300000 240.300000 0 0 0 350.900652 26.703513 z" /><desc class="value">1</desc><desc class="x centered">351.5142306318403</desc><desc class="y centered">13.350927026386131</desc></g><g class="slice"><desc class="value">0</desc><desc class="x centered">352.2000000000013</desc><desc class="y centered">13.349999999999994</desc></g><g class="slice"><desc class="value">0</desc><desc class="x centered">352.2000000000013</desc><desc class="y centered">13.349999999999994</desc></g><g class="big_slice"><path class="slice reactive tooltip-trigger" d="M120.456327 330.552811 A240.300000 240.300000 0 0 1 352.200000 26.700000 L352.200000 267.000000 A0.000000 0.000000 0 0 0 352.200000 267.000000 z" /><desc class="value">340</desc><desc class="x centered">256.66477707088353</desc><desc class="y centered">194.13681533254243</desc></g></g></g></g><g class="titles"><text class="title plot_title" x="400.0" y="26">Facturas x Cliente</text></g><g class="plot overlay" transform="translate(75, 46)"><g class="series serie-0 color-0" /><g class="series serie-1 color-1" /><g class="series serie-2 color-2" /></g><g class="plot text-overlay" transform="translate(75, 46)"><g class="series serie-0 color-0" /><g class="series serie-1 color-1" /><g class="series serie-2 color-2" /></g><g class="plot tooltip-overlay" transform="translate(75, 46)"><g class="tooltip" style="opacity: 0" transform="translate(0 0)"><rect class="tooltip-box" height="0" rx="0" ry="0" width="0" /><g class="text" /></g></g><g class="legends" transform="translate(10, 56)"><g class="legend reactive activate-serie" id="activate-serie-0"><rect class="color-0 reactive" height="12" width="12" x="0.0" y="1.0" /><text x="17.0" y="11.2">2019</text></g><g class="legend reactive activate-serie" id="activate-serie-1"><rect class="color-1 reactive" height="12" width="12" x="0.0" y="22.0" /><text x="17.0" y="32.2">2018</text></g><g class="legend reactive activate-serie" id="activate-serie-2"><rect class="color-2 reactive" height="12" width="12" x="0.0" y="43.0" /><text x="17.0" y="53.2">2017</text></g></g><g class="legends" transform="translate(790, 56)" /></g></svg>